<?xml version="1.0" encoding="utf-8"?>
<!-- Generator: Adobe Illustrator 23.0.2, SVG Export Plug-In . SVG Version: 6.00 Build 0)  -->
<svg version="1.1" id="Layer_1" xmlns="http://www.w3.org/2000/svg" xmlns:xlink="http://www.w3.org/1999/xlink" x="0px" y="0px"
	 viewBox="0 0 49.6 58.7" style="enable-background:new 0 0 49.6 58.7;" xml:space="preserve">
<style type="text/css">
	.st0{fill:#DEDEDE;}
</style>
<title>delete, trash, remove, bin, recycle</title>
<g>
	<path class="st0" d="M4.6,51.1c0.2,4.3,3.7,7.7,8,7.7H37c4.3,0,7.8-3.4,8-7.7l1.6-36.2H3L4.6,51.1z M30.7,22.6c0-1.1,1-2,2.1-1.9
		c1.1,0,2,1,1.9,2.1l0,0L33.8,49c0,1.1-0.9,1.9-2,1.9l0,0c-1.1,0-2-0.9-2-2c0,0,0,0,0-0.1L30.7,22.6z M16.8,20.7
		c1.1,0,2,0.8,2.1,1.9l0,0l0.9,26.2c0,1.1-0.8,2-1.9,2.1c0,0,0,0-0.1,0l0,0c-1.1,0-2-0.9-2-1.9l-0.9-26.2
		C14.9,21.7,15.7,20.8,16.8,20.7z M47.6,6.9H34.3V2c0-1.1-0.9-2-2-2h-15c-1.1,0-2,0.9-2,2v4.9H2c-1.1,0-2,0.9-2,2s0.9,2,2,2h45.6
		c1.1,0,2-0.9,2-2S48.7,6.9,47.6,6.9z M19.3,4h10.9v2.9H19.3V4z"/>
</g>
</svg>
