<svg xmlns="http://www.w3.org/2000/svg" width="266.75" height="76.927" viewBox="0 0 266.75 76.927">
    <defs>
        <style>
            .prefix__cls-1{isolation:isolate}.prefix__cls-2{fill:#fff}
        </style>
    </defs>
    <g id="prefix__logo" transform="translate(-421.994 -1179.125)">
        <g id="prefix__Group_1" data-name="Group 1">
            <g id="prefix__Group_86" class="prefix__cls-1" data-name="Group 86">
                <path id="prefix__Path_17" d="M434.21 1221.4v-34.98h-12.216v-7.294H455.3v7.294h-12.242v34.98z" class="prefix__cls-2" data-name="Path 17"/>
                <path id="prefix__Path_18" d="M481.832 1211.791c-.937 6.152-6.562 10.282-14.326 10.282-9.668 0-15.469-6.181-15.469-16.23 0-10.019 5.859-16.523 15.147-16.523 9.14 0 14.912 6.181 14.912 15.732v2.608h-21.651v.527c0 4.482 2.842 7.559 7.207 7.559 3.135 0 5.537-1.553 6.328-3.955zm-21.3-9.375h13.33c-.176-4.014-2.783-6.768-6.592-6.768-3.749 0-6.444 2.842-6.737 6.768z" class="prefix__cls-2" data-name="Path 18"/>
                <path id="prefix__Path_19" d="M507.686 1201.683c-.5-3.31-2.7-5.654-6.211-5.654-4.219 0-6.855 3.574-6.855 9.638 0 6.182 2.636 9.7 6.884 9.7 3.428 0 5.655-2.051 6.182-5.479h7.969c-.44 7.412-5.977 12.187-14.238 12.187-9.463 0-15.469-6.152-15.469-16.406 0-10.078 6.006-16.347 15.41-16.347 8.5 0 13.887 5.244 14.267 12.363z" class="prefix__cls-2" data-name="Path 19"/>
                <path id="prefix__Path_20" d="M520.59 1179.125H529v16.464h.175c1.67-3.955 5.1-6.181 9.873-6.181 6.973 0 10.957 4.511 10.957 11.777v20.215h-8.555V1203c0-4.043-1.992-6.5-5.889-6.5-4.043 0-6.416 2.841-6.416 6.972v17.928h-8.555z" class="prefix__cls-2" data-name="Path 20"/>
                <path id="prefix__Path_21" d="M587.255 1205.7c0 10.107-4.863 16.2-12.715 16.2-4.57 0-8.086-2.226-9.756-5.771h-.176v15.527h-8.554v-41.659h8.437v5.478h.176a10.238 10.238 0 0 1 9.727-5.976c7.968.001 12.861 6.061 12.861 16.201zm-8.76 0c0-5.684-2.7-9.346-6.973-9.346-4.189 0-6.943 3.721-6.943 9.346 0 5.683 2.754 9.316 6.943 9.316 4.278-.003 6.973-3.606 6.973-9.316z" class="prefix__cls-2" data-name="Path 21"/>
                <path id="prefix__Path_22" d="M591.107 1205.667c0-10.166 6.153-16.347 15.557-16.347s15.557 6.152 15.557 16.347c0 10.342-6.065 16.406-15.557 16.406s-15.557-6.093-15.557-16.406zm22.413.03c0-6.24-2.7-9.844-6.856-9.844s-6.885 3.6-6.885 9.844c0 6.3 2.666 9.844 6.885 9.844 4.19 0 6.856-3.541 6.856-9.841z" class="prefix__cls-2" data-name="Path 22"/>
                <path id="prefix__Path_23" d="M627.215 1189.994h8.262v5.654h.175c1.114-3.984 3.78-6.152 7.471-6.152a8.71 8.71 0 0 1 2.432.322v7.529a8.8 8.8 0 0 0-3.106-.5c-4.219 0-6.679 2.578-6.679 7v17.553h-8.555z" class="prefix__cls-2" data-name="Path 23"/>
                <path id="prefix__Path_24" d="M661.507 1182.757v7.237h5.8v6.445h-5.8v15.029c0 2.4 1.172 3.545 3.691 3.545a13.828 13.828 0 0 0 2.08-.146v6.3a19.665 19.665 0 0 1-4.072.352c-7.383 0-10.254-2.461-10.254-8.584v-16.494h-4.424v-6.445h4.424v-7.237z" class="prefix__cls-2" data-name="Path 24"/>
            </g>
            <g id="prefix__Group_87" class="prefix__cls-1" data-name="Group 87">
                <path id="prefix__Path_25" d="M579.994 1251.4v-16.91h7.36c3.175 0 5.167 1.629 5.167 4.219a3.729 3.729 0 0 1-3.175 3.668v.094a4.1 4.1 0 0 1 3.984 4.09c0 2.976-2.238 4.839-5.848 4.839zm3.539-9.878h2.543c1.887 0 2.965-.833 2.965-2.262 0-1.36-.949-2.133-2.6-2.133h-2.906zm3.047 7.242c2.039 0 3.141-.867 3.141-2.485 0-1.582-1.137-2.425-3.223-2.425h-2.965v4.91z" class="prefix__cls-2" data-name="Path 25"/>
                <path id="prefix__Path_26" d="M595.633 1256.017v-2.649c.117.024.738.035.867.035 1.242 0 1.863-.4 2.1-1.394 0-.059.129-.551.117-.61l-4.371-12.562h3.75l2.672 9.82h.07l2.66-9.82h3.602l-4.324 12.832c-1.066 3.223-2.648 4.383-5.847 4.383-.129 0-1.179-.012-1.296-.035z" class="prefix__cls-2" data-name="Path 26"/>
            </g>
            <g id="prefix__Group_88" class="prefix__cls-1" data-name="Group 88">
                <path id="prefix__Path_27" d="M672.838 1191.7a7.953 7.953 0 1 1 7.953 7.875 7.8 7.8 0 0 1-7.953-7.875zm13.75 0a5.79 5.79 0 1 0-5.8 5.875 5.7 5.7 0 0 0 5.8-5.875zm-8.906 3.515v-7.234h3.781a2.389 2.389 0 0 1 2.687 2.313 2.111 2.111 0 0 1-1.531 2.171l1.906 2.75h-2.312l-1.578-2.468H679.6v2.468zm1.922-3.875h1.421c.688 0 1.094-.328 1.094-.921s-.375-.907-1.062-.907H679.6z" class="prefix__cls-2" data-name="Path 27"/>
            </g>
        </g>
        <path id="prefix__Path_28" d="M629.593 1250.421l-.674 2.079h4.2l4.474-13.812a.764.764 0 0 1 .391-.434.772.772 0 0 1 1.033.383l4.49 13.863h4.2v-.007h7.916a5.458 5.458 0 0 0 4.693-2.682l-.872 2.689h4.205l4.481-13.81a.769.769 0 0 1 .984-.465.746.746 0 0 1 .449.413l4.5 13.862h4.2l-4.917-15.15a4.77 4.77 0 0 0-9.006.053l-3.283 10.115c.014-.16.025-.322.025-.487a5.469 5.469 0 0 0-5.462-5.463h-4.7a1.464 1.464 0 0 1-1.439-1.488 1.507 1.507 0 0 1 1.523-1.438h9.006v-4h-8.973a5.492 5.492 0 0 0-5.556 5.371 5.464 5.464 0 0 0 5.355 5.554h4.785a1.463 1.463 0 0 1 0 2.925h-9.212l-3.608-11.14a4.764 4.764 0 0 0-9 .051l-3.7 11.419a4.667 4.667 0 0 0 .05-.639V1234.8h-4v13.391a.768.768 0 0 1-1.474.3l-3.076-11.005-.041-.131a4.774 4.774 0 0 0-4.49-3.17 4.764 4.764 0 0 0-4.766 4.769v13.39h4v-13.391a.768.768 0 0 1 1.474-.3l3.075 11.005.042.133a4.758 4.758 0 0 0 8.693.637z" data-name="Path 28" style="fill:#e60d2e"/>
    </g>
</svg>
